<svg width="24" height="18" viewBox="0 0 24 18" fill="none" xmlns="http://www.w3.org/2000/svg">
<path d="M17.175 9.0168C18.762 9.0168 20.0385 7.7288 20.0385 6.1418C20.0385 4.5548 18.762 3.2668 17.175 3.2668C15.588 3.2668 14.3 4.5548 14.3 6.1418C14.3 7.7288 15.588 9.0168 17.175 9.0168ZM8.55 7.8668C10.459 7.8668 11.9885 6.3258 11.9885 4.4168C11.9885 2.5078 10.459 0.966797 8.55 0.966797C6.641 0.966797 5.1 2.5078 5.1 4.4168C5.1 6.3258 6.641 7.8668 8.55 7.8668ZM17.175 11.3168C15.0705 11.3168 10.85 12.3748 10.85 14.4793V17.0668H23.5V14.4793C23.5 12.3748 19.2795 11.3168 17.175 11.3168ZM8.55 10.1668C5.8705 10.1668 0.5 11.5123 0.5 14.1918V17.0668H8.55V14.4793C8.55 13.5018 8.9295 11.7883 11.2755 10.4888C10.275 10.2818 9.309 10.1668 8.55 10.1668Z" fill="white"/>
</svg>
