<svg width="26" height="25" viewBox="0 0 15 25" fill="none" xmlns="http://www.w3.org/2000/svg">
<path d="M8.57466 12.2176C5.22986 11.3483 4.15422 10.4494 4.15422 9.04964C4.15422 7.44355 5.64244 6.32371 8.13261 6.32371C10.7554 6.32371 11.7279 7.57617 11.8163 9.41801H15.0727C14.9695 6.88363 13.4224 4.55554 10.3428 3.80406V0.577148H5.9224V3.75986C3.06385 4.37872 0.765226 6.2353 0.765226 9.07911C0.765226 12.4828 3.57957 14.1773 7.69057 15.1646C11.3743 16.0487 12.111 17.3453 12.111 18.7157C12.111 19.7324 11.389 21.3532 8.13261 21.3532C5.09725 21.3532 3.90373 19.9976 3.74165 18.2589H0.5C0.676817 21.4858 3.09332 23.2982 5.9224 23.9023V27.0997H10.3428V23.9318C13.2161 23.3866 15.5 21.7215 15.5 18.7009C15.5 14.5162 11.9194 13.087 8.57466 12.2176Z" fill="white"/>
</svg>
