<svg width="33" height="23" viewBox="0 0 33 23" fill="none" xmlns="http://www.w3.org/2000/svg">
<path d="M5.33278 20.2455C5.33278 20.8885 5.10639 21.4245 4.65525 21.852C4.20246 22.3062 3.66976 22.5317 3.05382 22.5317H2.99722C2.38129 22.5317 1.84859 22.3046 1.39579 21.852C0.942995 21.4245 0.718262 20.8885 0.718262 20.2455V9.85173C0.718262 7.35682 1.60388 5.21594 3.37511 3.42574C5.14634 1.64891 7.28047 0.760498 9.78084 0.760498C12.769 0.760498 15.0246 1.75579 16.5445 3.74638C18.051 1.75579 20.2983 0.760498 23.2881 0.760498C25.7868 0.760498 27.9226 1.64891 29.6939 3.42574C31.4651 5.21427 32.3507 7.35682 32.3507 9.85173V20.2455C32.3507 20.8751 32.131 21.4111 31.6915 21.852C31.2387 22.3062 30.6993 22.5317 30.0717 22.5317H30.0335C29.3925 22.5317 28.8582 22.3046 28.432 21.852C27.9792 21.4245 27.7545 20.8885 27.7545 20.2455V9.85173C27.7545 8.61763 27.3217 7.56556 26.4544 6.69552C25.5871 5.82547 24.5333 5.39128 23.2898 5.39128C22.0579 5.39128 21.0108 5.82547 20.1435 6.69552C19.2762 7.56556 18.8434 8.61763 18.8434 9.85173V20.2455C18.8434 20.8885 18.617 21.4245 18.1659 21.852C17.7381 22.3062 17.2054 22.5317 16.5644 22.5317H16.5262C15.8986 22.5317 15.3575 22.3046 14.9064 21.852C14.4536 21.4245 14.2289 20.8885 14.2289 20.2455V9.85173C14.2289 8.61763 13.7961 7.56556 12.9288 6.69552C12.0615 5.82547 11.0127 5.39128 9.7825 5.39128C8.55063 5.39128 7.50354 5.82547 6.63624 6.69552C5.76893 7.56556 5.33611 8.61763 5.33611 9.85173V20.2455H5.33278Z" fill="white"/>
</svg>
