<svg width="22" height="25" viewBox="0 0 22 25" fill="none" xmlns="http://www.w3.org/2000/svg">
<path d="M22 6.4668V20.9668C22 23.1668 20.2 24.9668 18 24.9668H10.7C9.62 24.9668 8.6 24.5368 7.85 23.7768L0 15.7968C0 15.7968 1.26 14.5668 1.3 14.5468C1.52 14.3568 1.79 14.2568 2.09 14.2568C2.31 14.2568 2.51 14.3168 2.69 14.4168C2.73 14.4268 7 16.8768 7 16.8768V4.9668C7 4.1368 7.67 3.4668 8.5 3.4668C9.33 3.4668 10 4.1368 10 4.9668V11.9668H11V2.4668C11 1.6368 11.67 0.966797 12.5 0.966797C13.33 0.966797 14 1.6368 14 2.4668V11.9668H15V3.4668C15 2.6368 15.67 1.9668 16.5 1.9668C17.33 1.9668 18 2.6368 18 3.4668V11.9668H19V6.4668C19 5.6368 19.67 4.9668 20.5 4.9668C21.33 4.9668 22 5.6368 22 6.4668Z" fill="white"/>
</svg>
