<svg width="215" height="67" viewBox="0 0 215 67" fill="none" xmlns="http://www.w3.org/2000/svg">
<path d="M8.76579 48.5228C8.76579 49.7054 8.34527 50.6924 7.50421 51.4749C6.66316 52.3107 5.67895 52.7287 4.53369 52.7287H4.42632C3.28106 52.7287 2.29685 52.3107 1.45579 51.4749C0.61474 50.6924 0.194214 49.7054 0.194214 48.5228V29.4232C0.194214 24.835 1.84053 20.9048 5.12421 17.6148C8.4079 14.3515 12.3716 12.7154 17.0063 12.7154C22.5537 12.7154 26.7321 14.5471 29.5505 18.2017C32.3421 14.5471 36.5205 12.7154 42.059 12.7154C46.6937 12.7154 50.6574 14.3515 53.9411 17.6148C57.2247 20.9048 58.8711 24.835 58.8711 29.4232V48.5228C58.8711 49.6788 58.4595 50.6658 57.6453 51.4749C56.8042 52.3107 55.8021 52.7287 54.6389 52.7287H54.5674C53.3774 52.7287 52.3842 52.3107 51.5968 51.4749C50.7558 50.6924 50.3353 49.7054 50.3353 48.5228V29.4232C50.3353 27.1557 49.53 25.2173 47.9195 23.6257C46.309 22.0341 44.3584 21.2249 42.05 21.2249C39.7684 21.2249 37.8179 22.0252 36.2163 23.6257C34.6147 25.2262 33.8005 27.1557 33.8005 29.4232V48.5228C33.8005 49.7054 33.38 50.6924 32.539 51.4749C31.7426 52.3107 30.7584 52.7287 29.5684 52.7287H29.4968C28.3337 52.7287 27.3316 52.3107 26.4905 51.4749C25.6495 50.6924 25.229 49.7054 25.229 48.5228V29.4232C25.229 27.1557 24.4237 25.2173 22.8132 23.6257C21.2026 22.0341 19.2611 21.2249 16.9795 21.2249C14.6979 21.2249 12.7474 22.0252 11.1458 23.6257C9.54422 25.2262 8.73 27.1557 8.73 29.4232V48.5228H8.76579Z" fill="#6C3EFF"/>
<path d="M96.799 24.3815C97.0763 24.9595 97.2195 25.5552 97.2195 26.151C97.2195 26.64 97.13 27.1202 96.9421 27.6092C96.5484 28.694 95.7969 29.4854 94.7053 29.9744C91.4395 31.4327 87.1537 33.3534 81.839 35.7364C75.2447 38.6973 71.3795 40.449 70.2342 40.9825C72.0058 43.2055 74.7616 44.317 78.5195 44.317C81.0158 44.317 83.2705 43.5879 85.3016 42.1296C87.279 40.698 88.6658 38.8396 89.4621 36.5722C90.1332 34.6782 91.4932 33.7268 93.5153 33.7268C94.9558 33.7268 96.11 34.3314 96.9779 35.5318C97.5148 36.2699 97.7832 37.0524 97.7832 37.8615C97.7832 38.3506 97.6937 38.8485 97.5058 39.3553C96.1279 43.3122 93.7211 46.5133 90.2674 48.9407C86.769 51.466 82.859 52.7287 78.5284 52.7287C72.9811 52.7287 68.239 50.7725 64.3021 46.8601C60.3653 42.9476 58.3969 38.235 58.3969 32.722C58.3969 27.2091 60.3653 22.4964 64.3021 18.584C68.239 14.6716 72.9811 12.7154 78.5284 12.7154C82.5369 12.7154 86.1963 13.8002 89.5069 15.9787C92.7816 18.1128 95.2153 20.9137 96.799 24.3815ZM78.5195 21.296C75.3074 21.296 72.5695 22.4164 70.3058 24.666C68.069 26.9157 66.9505 29.6366 66.9505 32.8287V33.0688L86.4916 24.3548C84.7647 22.3097 82.1074 21.296 78.5195 21.296Z" fill="#6C3EFF"/>
<path d="M134.986 24.3815C135.264 24.9595 135.407 25.5552 135.407 26.151C135.407 26.64 135.308 27.1202 135.129 27.6092C134.736 28.694 133.984 29.4854 132.893 29.9744C129.627 31.4327 125.341 33.3534 120.026 35.7364C113.432 38.6973 109.567 40.449 108.422 40.9825C110.193 43.2055 112.949 44.317 116.707 44.317C119.203 44.317 121.458 43.5879 123.489 42.1296C125.466 40.698 126.853 38.8396 127.649 36.5722C128.32 34.6782 129.68 33.7268 131.703 33.7268C133.143 33.7268 134.297 34.3314 135.165 35.5318C135.702 36.2699 135.97 37.0524 135.97 37.8615C135.97 38.3506 135.872 38.8485 135.693 39.3553C134.315 43.3122 131.908 46.5133 128.455 48.9407C124.956 51.466 121.046 52.7287 116.716 52.7287C111.168 52.7287 106.426 50.7725 102.489 46.8601C98.5526 42.9476 96.5842 38.235 96.5842 32.722C96.5842 27.2091 98.5526 22.4964 102.489 18.584C106.426 14.6716 111.168 12.7154 116.716 12.7154C120.724 12.7154 124.384 13.8002 127.694 15.9787C130.969 18.1128 133.403 20.9137 134.986 24.3815ZM116.707 21.296C113.495 21.296 110.757 22.4164 108.493 24.666C106.256 26.9157 105.138 29.6366 105.138 32.8287V33.0688L124.679 24.3548C122.952 22.3097 120.295 21.296 116.707 21.296Z" fill="#6C3EFF"/>
<path d="M154.903 58.4905C157.811 58.4905 160.451 57.3524 162.804 55.085C165.246 52.7731 166.472 50.07 166.472 46.9934C163.815 50.8169 159.958 52.7286 154.903 52.7286C149.356 52.7286 144.614 50.7724 140.677 46.86C136.74 42.9476 134.772 38.235 134.772 32.722C134.772 27.2091 136.74 22.4964 140.677 18.584C144.614 14.6716 149.356 12.7154 154.903 12.7154C160.424 12.7154 165.157 14.6627 169.094 18.5485C173.031 22.4164 175.008 27.1202 175.035 32.6509V46.9934C175.035 52.4085 172.923 57.139 168.709 61.167C164.629 65.0616 160.03 67 154.903 67C147.047 67 141.169 63.9679 137.25 57.9037C136.785 57.1834 136.552 56.4454 136.552 55.6807C136.552 55.2183 136.633 54.756 136.794 54.2936C137.214 52.9954 138.073 52.1151 139.38 51.6527L139.487 51.6172C140.068 51.4126 140.632 51.3059 141.169 51.3059C142.475 51.3059 143.567 51.955 144.453 53.2532C146.752 56.7477 150.242 58.4905 154.903 58.4905ZM166.472 32.5086C166.427 29.3787 165.273 26.72 163.009 24.5238C160.773 22.3275 158.071 21.2249 154.903 21.2249C151.691 21.2249 148.953 22.3453 146.69 24.5949C144.453 26.8445 143.334 29.5476 143.334 32.722C143.334 35.9142 144.453 38.6351 146.69 40.8847C148.953 43.1077 151.691 44.2192 154.903 44.2192C158.115 44.2192 160.844 43.1077 163.081 40.8847C165.345 38.6351 166.472 35.9142 166.472 32.722V32.5086Z" fill="#FFAA00"/>
<path d="M194.665 12.7154C200.213 12.7154 204.955 14.6716 208.892 18.584C212.828 22.4964 214.797 27.2091 214.797 32.722C214.797 38.235 212.828 42.9476 208.892 46.8601C204.955 50.7725 200.213 52.7287 194.665 52.7287C189.118 52.7287 184.376 50.7725 180.439 46.8601C176.502 42.9476 174.534 38.235 174.534 32.722C174.534 27.2091 176.502 22.4964 180.439 18.584C184.376 14.6716 189.118 12.7154 194.665 12.7154ZM194.665 21.296C191.453 21.296 188.715 22.4164 186.452 24.666C184.215 26.9157 183.096 29.6366 183.096 32.8287C183.096 36.0031 184.215 38.7151 186.452 40.9559C188.715 43.2055 191.453 44.3259 194.665 44.3259C197.859 44.3259 200.579 43.2055 202.843 40.9559C205.107 38.7062 206.234 36.0031 206.234 32.8287C206.234 29.6366 205.107 26.9157 202.843 24.666C200.579 22.4164 197.851 21.296 194.665 21.296ZM194.665 28.3562C193.422 28.3562 192.366 28.7918 191.489 29.6544C190.621 30.5258 190.192 31.575 190.192 32.8109C190.192 34.038 190.621 35.0872 191.489 35.9498C192.366 36.8212 193.422 37.248 194.665 37.248C195.9 37.248 196.956 36.8123 197.824 35.9498C198.701 35.0784 199.13 34.038 199.13 32.8109C199.13 31.575 198.692 30.5258 197.824 29.6544C196.947 28.7918 195.9 28.3562 194.665 28.3562Z" fill="#FFAA00"/>
<path d="M208.972 11.7018C208.364 11.7018 207.746 11.5417 207.183 11.2038C203.416 8.9453 199.085 7.74489 194.656 7.74489C190.236 7.74489 185.906 8.9364 182.148 11.1949C180.51 12.1819 178.381 11.6484 177.397 10.0301C176.413 8.40289 176.94 6.28665 178.569 5.30855C183.409 2.40982 188.975 0.871552 194.656 0.871552C200.347 0.871552 205.912 2.40983 210.762 5.31745C212.399 6.29555 212.927 8.41179 211.934 10.039C211.289 11.106 210.144 11.7018 208.972 11.7018Z" fill="#FFAA00"/>
</svg>
