<svg width="24" height="24" viewBox="0 0 24 24" fill="none" xmlns="http://www.w3.org/2000/svg">
<path d="M22.8215 11.5941L12.4715 1.24415C12.0575 0.830148 11.4825 0.577148 10.85 0.577148H2.8C1.535 0.577148 0.5 1.61215 0.5 2.87715V10.9271C0.5 11.5596 0.753 12.1346 1.1785 12.5601L11.5285 22.9101C11.9425 23.3241 12.5175 23.5771 13.15 23.5771C13.7825 23.5771 14.3575 23.3241 14.7715 22.8986L22.8215 14.8486C23.247 14.4346 23.5 13.8596 23.5 13.2271C23.5 12.5946 23.2355 12.0081 22.8215 11.5941ZM4.525 6.32715C3.5705 6.32715 2.8 5.55665 2.8 4.60215C2.8 3.64765 3.5705 2.87715 4.525 2.87715C5.4795 2.87715 6.25 3.64765 6.25 4.60215C6.25 5.55665 5.4795 6.32715 4.525 6.32715Z" fill="white"/>
</svg>
