<svg width="255" height="337" viewBox="0 0 255 337" fill="none" xmlns="http://www.w3.org/2000/svg">
<path d="M232.632 253.417H22.3684C10.0121 253.417 0 243.467 0 231.187V22.2296C0 9.94995 10.0121 0 22.3684 0H232.632C244.988 0 255 9.94995 255 22.2296V231.187C255 243.467 244.988 253.417 232.632 253.417Z" fill="#6C3EFF"/>
<path d="M70.881 175.16C70.881 178.583 69.6642 181.438 67.2394 183.714C64.8058 186.132 61.9426 187.333 58.6321 187.333H58.3279C55.0173 187.333 52.1542 186.124 49.7205 183.714C47.2868 181.438 46.0789 178.583 46.0789 175.16V119.817C46.0789 106.533 50.8389 95.1336 60.3589 85.6016C69.8789 76.1407 81.3494 71.4102 94.7884 71.4102C110.849 71.4102 122.973 76.7097 131.142 87.3088C139.239 76.7097 151.318 71.4102 167.387 71.4102C180.817 71.4102 192.297 76.1407 201.817 85.6016C211.337 95.1247 216.097 106.533 216.097 119.817V175.16C216.097 178.512 214.916 181.366 212.554 183.714C210.12 186.132 207.221 187.333 203.848 187.333H203.642C200.197 187.333 197.325 186.124 195.035 183.714C192.601 181.438 191.393 178.583 191.393 175.16V119.817C191.393 113.246 189.067 107.644 184.405 103.012C179.744 98.3791 174.08 96.0672 167.396 96.0672C160.775 96.0672 155.147 98.3791 150.486 103.012C145.824 107.644 143.498 113.246 143.498 119.817V175.16C143.498 178.583 142.281 181.438 139.856 183.714C137.557 186.132 134.694 187.333 131.249 187.333H131.043C127.67 187.333 124.762 186.124 122.337 183.714C119.904 181.438 118.696 178.583 118.696 175.16V119.817C118.696 113.246 116.369 107.644 111.708 103.012C107.046 98.3791 101.409 96.0672 94.7973 96.0672C88.1763 96.0672 82.5484 98.3791 77.8868 103.012C73.2252 107.644 70.8989 113.246 70.8989 119.817V175.16H70.881Z" fill="#FFAA00"/>
<path d="M63.7231 169.825C63.7231 173.248 62.5063 176.103 60.0815 178.379C57.6479 180.797 54.7847 181.998 51.4742 181.998H51.17C47.8594 181.998 44.9963 180.788 42.5626 178.379C40.1289 176.103 38.921 173.248 38.921 169.825V114.482C38.921 101.198 43.681 89.7985 53.201 80.2665C62.721 70.8056 74.1915 66.0751 87.6305 66.0751C103.691 66.0751 115.815 71.3747 123.984 81.9737C132.081 71.3747 144.16 66.0751 160.229 66.0751C173.659 66.0751 185.139 70.8056 194.659 80.2665C204.179 89.7896 208.939 101.198 208.939 114.482V169.825C208.939 173.177 207.758 176.031 205.396 178.379C202.962 180.797 200.063 181.998 196.69 181.998H196.484C193.039 181.998 190.167 180.788 187.877 178.379C185.443 176.103 184.235 173.248 184.235 169.825V114.482C184.235 107.911 181.909 102.309 177.247 97.6767C172.586 93.044 166.922 90.7322 160.238 90.7322C153.617 90.7322 147.989 93.044 143.328 97.6767C138.666 102.309 136.34 107.911 136.34 114.482V169.825C136.34 173.248 135.123 176.103 132.698 178.379C130.399 180.797 127.536 181.998 124.091 181.998H123.885C120.512 181.998 117.604 180.788 115.179 178.379C112.746 176.103 111.538 173.248 111.538 169.825V114.482C111.538 107.911 109.212 102.309 104.55 97.6767C99.8884 93.044 94.2515 90.7322 87.6394 90.7322C81.0184 90.7322 75.3905 93.044 70.7289 97.6767C66.0673 102.309 63.741 107.911 63.741 114.482V169.825H63.7231Z" fill="white"/>
<path d="M28.7658 318.523C28.7658 319.705 28.3453 320.692 27.5042 321.475C26.6632 322.311 25.679 322.729 24.5337 322.729H24.4263C23.2811 322.729 22.2968 322.311 21.4558 321.475C20.6147 320.692 20.1942 319.705 20.1942 318.523V299.423C20.1942 294.835 21.8405 290.905 25.1242 287.615C28.4079 284.352 32.3716 282.715 37.0063 282.715C42.5537 282.715 46.7321 284.547 49.5505 288.202C52.3421 284.547 56.5205 282.715 62.059 282.715C66.6937 282.715 70.6574 284.352 73.9411 287.615C77.2247 290.905 78.8711 294.835 78.8711 299.423V318.523C78.8711 319.679 78.4595 320.666 77.6453 321.475C76.8042 322.311 75.8021 322.729 74.6389 322.729H74.5674C73.3774 322.729 72.3842 322.311 71.5968 321.475C70.7558 320.692 70.3353 319.705 70.3353 318.523V299.423C70.3353 297.156 69.53 295.217 67.9195 293.626C66.309 292.034 64.3584 291.225 62.05 291.225C59.7684 291.225 57.8179 292.025 56.2163 293.626C54.6147 295.226 53.8005 297.156 53.8005 299.423V318.523C53.8005 319.705 53.38 320.692 52.539 321.475C51.7426 322.311 50.7584 322.729 49.5684 322.729H49.4968C48.3337 322.729 47.3316 322.311 46.4905 321.475C45.6495 320.692 45.229 319.705 45.229 318.523V299.423C45.229 297.156 44.4237 295.217 42.8132 293.626C41.2026 292.034 39.2611 291.225 36.9795 291.225C34.6979 291.225 32.7474 292.025 31.1458 293.626C29.5442 295.226 28.73 297.156 28.73 299.423V318.523H28.7658Z" fill="#6C3EFF"/>
<path d="M116.799 294.382C117.076 294.959 117.219 295.555 117.219 296.151C117.219 296.64 117.13 297.12 116.942 297.609C116.548 298.694 115.797 299.485 114.705 299.974C111.439 301.433 107.154 303.353 101.839 305.736C95.2447 308.697 91.3795 310.449 90.2342 310.983C92.0058 313.205 94.7616 314.317 98.5195 314.317C101.016 314.317 103.271 313.588 105.302 312.13C107.279 310.698 108.666 308.84 109.462 306.572C110.133 304.678 111.493 303.727 113.515 303.727C114.956 303.727 116.11 304.331 116.978 305.532C117.515 306.27 117.783 307.052 117.783 307.862C117.783 308.351 117.694 308.849 117.506 309.355C116.128 313.312 113.721 316.513 110.267 318.941C106.769 321.466 102.859 322.729 98.5284 322.729C92.9811 322.729 88.239 320.772 84.3021 316.86C80.3653 312.948 78.3969 308.235 78.3969 302.722C78.3969 297.209 80.3653 292.496 84.3021 288.584C88.239 284.672 92.9811 282.715 98.5284 282.715C102.537 282.715 106.196 283.8 109.507 285.979C112.782 288.113 115.215 290.914 116.799 294.382ZM98.5195 291.296C95.3074 291.296 92.5695 292.416 90.3058 294.666C88.069 296.916 86.9505 299.637 86.9505 302.829V303.069L106.492 294.355C104.765 292.31 102.107 291.296 98.5195 291.296Z" fill="#6C3EFF"/>
<path d="M154.986 294.382C155.264 294.959 155.407 295.555 155.407 296.151C155.407 296.64 155.308 297.12 155.129 297.609C154.736 298.694 153.984 299.485 152.893 299.974C149.627 301.433 145.341 303.353 140.026 305.736C133.432 308.697 129.567 310.449 128.422 310.983C130.193 313.205 132.949 314.317 136.707 314.317C139.203 314.317 141.458 313.588 143.489 312.13C145.466 310.698 146.853 308.84 147.649 306.572C148.32 304.678 149.68 303.727 151.703 303.727C153.143 303.727 154.297 304.331 155.165 305.532C155.702 306.27 155.97 307.052 155.97 307.862C155.97 308.351 155.872 308.849 155.693 309.355C154.315 313.312 151.908 316.513 148.455 318.941C144.956 321.466 141.046 322.729 136.716 322.729C131.168 322.729 126.426 320.772 122.489 316.86C118.553 312.948 116.584 308.235 116.584 302.722C116.584 297.209 118.553 292.496 122.489 288.584C126.426 284.672 131.168 282.715 136.716 282.715C140.724 282.715 144.384 283.8 147.694 285.979C150.969 288.113 153.403 290.914 154.986 294.382ZM136.707 291.296C133.495 291.296 130.757 292.416 128.493 294.666C126.256 296.916 125.138 299.637 125.138 302.829V303.069L144.679 294.355C142.952 292.31 140.295 291.296 136.707 291.296Z" fill="#6C3EFF"/>
<path d="M174.903 328.491C177.811 328.491 180.451 327.352 182.804 325.085C185.246 322.773 186.472 320.07 186.472 316.993C183.815 320.817 179.958 322.729 174.903 322.729C169.356 322.729 164.614 320.772 160.677 316.86C156.74 312.948 154.772 308.235 154.772 302.722C154.772 297.209 156.74 292.496 160.677 288.584C164.614 284.672 169.356 282.715 174.903 282.715C180.424 282.715 185.157 284.663 189.094 288.548C193.031 292.416 195.008 297.12 195.035 302.651V316.993C195.035 322.409 192.923 327.139 188.709 331.167C184.629 335.062 180.03 337 174.903 337C167.047 337 161.169 333.968 157.25 327.904C156.785 327.183 156.552 326.445 156.552 325.681C156.552 325.218 156.633 324.756 156.794 324.294C157.214 322.995 158.073 322.115 159.38 321.653L159.487 321.617C160.068 321.413 160.632 321.306 161.169 321.306C162.475 321.306 163.567 321.955 164.453 323.253C166.752 326.748 170.242 328.491 174.903 328.491ZM186.472 302.509C186.427 299.379 185.273 296.72 183.009 294.524C180.773 292.327 178.071 291.225 174.903 291.225C171.691 291.225 168.953 292.345 166.69 294.595C164.453 296.845 163.334 299.548 163.334 302.722C163.334 305.914 164.453 308.635 166.69 310.885C168.953 313.108 171.691 314.219 174.903 314.219C178.115 314.219 180.844 313.108 183.081 310.885C185.345 308.635 186.472 305.914 186.472 302.722V302.509Z" fill="#FFAA00"/>
<path d="M214.665 282.715C220.213 282.715 224.955 284.672 228.892 288.584C232.828 292.496 234.797 297.209 234.797 302.722C234.797 308.235 232.828 312.948 228.892 316.86C224.955 320.772 220.213 322.729 214.665 322.729C209.118 322.729 204.376 320.772 200.439 316.86C196.502 312.948 194.534 308.235 194.534 302.722C194.534 297.209 196.502 292.496 200.439 288.584C204.376 284.672 209.118 282.715 214.665 282.715ZM214.665 291.296C211.453 291.296 208.715 292.416 206.452 294.666C204.215 296.916 203.096 299.637 203.096 302.829C203.096 306.003 204.215 308.715 206.452 310.956C208.715 313.205 211.453 314.326 214.665 314.326C217.859 314.326 220.579 313.205 222.843 310.956C225.107 308.706 226.234 306.003 226.234 302.829C226.234 299.637 225.107 296.916 222.843 294.666C220.579 292.416 217.851 291.296 214.665 291.296ZM214.665 298.356C213.422 298.356 212.366 298.792 211.489 299.654C210.621 300.526 210.192 301.575 210.192 302.811C210.192 304.038 210.621 305.087 211.489 305.95C212.366 306.821 213.422 307.248 214.665 307.248C215.9 307.248 216.956 306.812 217.824 305.95C218.701 305.078 219.13 304.038 219.13 302.811C219.13 301.575 218.692 300.526 217.824 299.654C216.947 298.792 215.9 298.356 214.665 298.356Z" fill="#FFAA00"/>
<path d="M228.972 281.702C228.364 281.702 227.746 281.542 227.183 281.204C223.416 278.945 219.085 277.745 214.656 277.745C210.236 277.745 205.906 278.936 202.148 281.195C200.51 282.182 198.381 281.648 197.397 280.03C196.413 278.403 196.94 276.287 198.569 275.309C203.409 272.41 208.975 270.872 214.656 270.872C220.347 270.872 225.912 272.41 230.762 275.317C232.399 276.296 232.927 278.412 231.934 280.039C231.289 281.106 230.144 281.702 228.972 281.702Z" fill="#FFAA00"/>
</svg>
