<svg width="27" height="26" viewBox="0 0 27 26" fill="none" xmlns="http://www.w3.org/2000/svg">
<path d="M24.3 5.7335H21.357C21.5055 5.315 21.6 4.856 21.6 4.3835C21.6 2.1425 19.791 0.333496 17.55 0.333496C16.1325 0.333496 14.904 1.0625 14.175 2.156L13.5 3.0605L12.825 2.1425C12.096 1.0625 10.8675 0.333496 9.45 0.333496C7.209 0.333496 5.4 2.1425 5.4 4.3835C5.4 4.856 5.4945 5.315 5.643 5.7335H2.7C1.2015 5.7335 0.0135 6.935 0.0135 8.4335L0 23.2835C0 24.782 1.2015 25.9835 2.7 25.9835H24.3C25.7985 25.9835 27 24.782 27 23.2835V8.4335C27 6.935 25.7985 5.7335 24.3 5.7335ZM17.55 3.0335C18.2925 3.0335 18.9 3.641 18.9 4.3835C18.9 5.126 18.2925 5.7335 17.55 5.7335C16.8075 5.7335 16.2 5.126 16.2 4.3835C16.2 3.641 16.8075 3.0335 17.55 3.0335ZM9.45 3.0335C10.1925 3.0335 10.8 3.641 10.8 4.3835C10.8 5.126 10.1925 5.7335 9.45 5.7335C8.7075 5.7335 8.1 5.126 8.1 4.3835C8.1 3.641 8.7075 3.0335 9.45 3.0335ZM24.3 23.2835H2.7V20.5835H24.3V23.2835ZM24.3 16.5335H2.7V8.4335H9.558L6.75 12.254L8.937 13.8335L12.15 9.4595L13.5 7.6235L14.85 9.4595L18.063 13.8335L20.25 12.254L17.442 8.4335H24.3V16.5335Z" fill="white"/>
</svg>
